<svg width="89" height="75" viewBox="0 0 89 75" fill="none" xmlns="http://www.w3.org/2000/svg">
<path fill-rule="evenodd" clip-rule="evenodd" d="M8.49622 0.727604C12.7076 -0.23964 16.9058 2.39028 17.873 6.6017L23.6091 31.5767C25.4718 30.7797 27.5231 30.3385 29.6774 30.3385H60.9761C63.3226 30.3385 65.5468 30.8619 67.5384 31.7985L70.7327 17.8904C71.6999 13.679 75.8981 11.0491 80.1095 12.0164C84.3209 12.9836 86.9508 17.1817 85.9836 21.3932L76.4675 62.8263C76.0923 64.4601 75.2308 65.8558 74.071 66.8959C71.342 71.2542 66.4976 74.1527 60.9761 74.1527H29.6774C23.3261 74.1527 17.8705 70.3175 15.5002 64.8366C15.1568 64.2138 14.8933 63.5334 14.7262 62.8059L2.62214 10.1044C1.65489 5.89298 4.28481 1.69485 8.49622 0.727604Z" fill="#FFDB01"/>
<rect x="29.7983" y="16.0483" width="14.9952" height="33.7727" rx="7.49761" fill="#FFDB01" stroke="black" stroke-width="1.48728"/>
<rect x="45.6421" y="16.0483" width="14.7866" height="33.7727" rx="7.39328" fill="#FFDB01" stroke="black" stroke-width="1.48728"/>
<path d="M47.3801 70.074C46.7706 71.1297 45.2469 71.1297 44.6374 70.074L43.3146 67.7829C42.7051 66.7272 43.467 65.4076 44.686 65.4076L47.3315 65.4076C48.5505 65.4076 49.3123 66.7272 48.7029 67.7829L47.3801 70.074Z" fill="black"/>
<path fill-rule="evenodd" clip-rule="evenodd" d="M65.4112 66.2579C65.6078 65.7268 65.7151 65.1524 65.7151 64.5529C65.7151 61.8399 63.5159 59.6406 60.8029 59.6406C58.0899 59.6406 55.8906 61.8399 55.8906 64.5529C55.8906 65.1524 55.998 65.7268 56.1946 66.2579C56.8877 64.3854 58.6894 63.0507 60.8029 63.0507C62.9164 63.0507 64.7181 64.3854 65.4112 66.2579Z" fill="black"/>
<path fill-rule="evenodd" clip-rule="evenodd" d="M35.794 66.2579C35.9906 65.7268 36.098 65.1524 36.098 64.5529C36.098 61.8399 33.8987 59.6406 31.1857 59.6406C28.4727 59.6406 26.2734 61.8399 26.2734 64.5529C26.2734 65.1524 26.3808 65.7268 26.5774 66.2579C27.2705 64.3854 29.0722 63.0507 31.1857 63.0507C33.2992 63.0507 35.1009 64.3854 35.794 66.2579Z" fill="black"/>
<path d="M45.8984 68.4688V74.102" stroke="black" stroke-width="0.197935"/>
<path d="M45.9229 70.793C45.9229 70.793 45.9229 74.1437 50.9301 74.1437C49.7889 74.1437 42.7593 74.1437 41.75 74.1437C46.1314 74.1437 45.9229 70.793 45.9229 70.793Z" fill="black"/>
<rect x="36.6287" y="36.4482" width="14.3693" height="31.6035" rx="7.18465" transform="rotate(75.5988 36.6287 36.4482)" fill="#FFDB01" stroke="black" stroke-width="1.48728"/>
</svg>
