<svg xmlns="http://www.w3.org/2000/svg" width="185" height="130" viewBox="0 0 185 130" fill="none">
  <path d="M18.7466 29.2838L84.273 10.4068L90.4217 52.5257L40.1056 68.869L14.9287 44.8131C9.78382 39.8973 11.9089 31.2536 18.7466 29.2838Z" fill="#FF2E00" stroke="black" stroke-width="1.67672"/>
  <path d="M132.258 8.52812C142.302 8.27164 151.141 15.112 153.413 24.8985L156.585 38.5613L163.863 88.422C166.581 107.045 145.46 119.685 130.332 108.489L119.274 100.305L38.9295 118.029C28.2898 120.376 19.4387 109.73 23.6886 99.698L30.1744 84.3873L38.481 33.2136L65.005 16.7413C70.8279 13.125 77.3336 10.7477 84.1161 9.75753L132.258 8.52812Z" fill="#FF2E00"/>
  <path d="M119.274 100.305L119.746 99.6671L119.455 99.4522L119.103 99.5301L119.274 100.305ZM156.585 38.5613L157.37 38.4467L157.366 38.414L157.358 38.3818L156.585 38.5613ZM38.481 33.2136L38.0623 32.5394L37.7555 32.73L37.6977 33.0865L38.481 33.2136ZM30.1744 84.3873L30.9051 84.6969L30.9424 84.6088L30.9578 84.5145L30.1744 84.3873ZM65.005 16.7413L64.5863 16.0671L65.005 16.7413ZM38.9295 118.029L39.1005 118.804L38.9295 118.029ZM23.6886 99.698L24.4193 100.008L23.6886 99.698ZM130.332 108.489L129.86 109.127L130.332 108.489ZM132.258 8.52812L132.279 9.32147L132.258 8.52812ZM130.804 107.851L119.746 99.6671L118.802 100.943L129.86 109.127L130.804 107.851ZM152.64 25.0779L155.812 38.7408L157.358 38.3818L154.186 24.719L152.64 25.0779ZM155.8 38.6759L163.077 88.5367L164.648 88.3074L157.37 38.4467L155.8 38.6759ZM84.1363 10.5509L132.279 9.32147L132.238 7.73478L84.0958 8.96419L84.1363 10.5509ZM119.103 99.5301L38.7586 117.254L39.1005 118.804L119.445 101.08L119.103 99.5301ZM38.8997 33.8878L65.4237 17.4154L64.5863 16.0671L38.0623 32.5394L38.8997 33.8878ZM24.4193 100.008L30.9051 84.6969L29.4437 84.0778L22.9579 99.3885L24.4193 100.008ZM30.9578 84.5145L39.2644 33.3408L37.6977 33.0865L29.3911 84.2602L30.9578 84.5145ZM84.0014 8.97226C77.111 9.97815 70.5018 12.3933 64.5863 16.0671L65.4237 17.4154C71.1539 13.8567 77.5561 11.5172 84.2307 10.5428L84.0014 8.97226ZM38.7586 117.254C28.7484 119.462 20.4209 109.446 24.4193 100.008L22.9579 99.3885C18.4565 110.014 27.8313 121.29 39.1005 118.804L38.7586 117.254ZM129.86 109.127C145.555 120.743 167.468 107.628 164.648 88.3074L163.077 88.5367C165.694 106.461 145.365 118.627 130.804 107.851L129.86 109.127ZM154.186 24.719C151.829 14.5655 142.658 7.46868 132.238 7.73478L132.279 9.32147C141.946 9.07461 150.454 15.6584 152.64 25.0779L154.186 24.719Z" fill="black"/>
  <path d="M135.258 72.3879C127.033 73.5886 119.811 68.9937 118.857 62.4565C117.902 55.9192 123.509 49.4516 131.734 48.2509C139.959 47.0501 147.181 51.645 148.135 58.1823C149.09 64.7195 143.483 71.1871 135.258 72.3879Z" fill="#FF2E00" stroke="black" stroke-width="1.58721"/>
  <path d="M131.501 46.6757C123.276 47.8765 116.054 43.2816 115.1 36.7443C114.145 30.2071 119.752 23.7395 127.977 22.5387C136.202 21.338 143.424 25.9329 144.378 32.4701C145.333 39.0074 139.726 45.475 131.501 46.6757Z" fill="#FF2E00" stroke="black" stroke-width="1.58721"/>
  <path d="M131.502 46.6707C128.816 47.0629 126.295 46.5959 124.395 45.5616C122.496 44.5275 121.26 42.9574 120.993 41.1303C120.726 39.3032 121.462 37.4453 122.986 35.9113C124.511 34.377 126.793 33.2089 129.479 32.8168C132.166 32.4246 134.686 32.8916 136.586 33.9259C138.486 34.96 139.722 36.5301 139.988 38.3572C140.255 40.1843 139.52 42.0422 137.995 43.5762C136.47 45.1105 134.188 46.2786 131.502 46.6707Z" fill="white"/>
  <path d="M131.502 46.6707C128.816 47.0629 126.295 46.5959 124.395 45.5616C122.496 44.5275 121.26 42.9574 120.993 41.1303C120.726 39.3032 121.462 37.4453 122.986 35.9113C124.511 34.377 126.793 33.2089 129.479 32.8168C132.166 32.4246 134.686 32.8916 136.586 33.9259C138.486 34.96 139.722 36.5301 139.988 38.3572C140.255 40.1843 139.52 42.0422 137.995 43.5762C136.47 45.1105 134.188 46.2786 131.502 46.6707Z" fill="white"/>
  <path d="M131.502 46.6707C128.816 47.0629 126.295 46.5959 124.395 45.5616C122.496 44.5275 121.26 42.9574 120.993 41.1303C120.726 39.3032 121.462 37.4453 122.986 35.9113C124.511 34.377 126.793 33.2089 129.479 32.8168C132.166 32.4246 134.686 32.8916 136.586 33.9259C138.486 34.96 139.722 36.5301 139.988 38.3572C140.255 40.1843 139.52 42.0422 137.995 43.5762C136.47 45.1105 134.188 46.2786 131.502 46.6707Z" fill="white"/>
  <path d="M131.502 46.6707C128.816 47.0629 126.295 46.5959 124.395 45.5616C122.496 44.5275 121.26 42.9574 120.993 41.1303C120.726 39.3032 121.462 37.4453 122.986 35.9113C124.511 34.377 126.793 33.2089 129.479 32.8168C132.166 32.4246 134.686 32.8916 136.586 33.9259C138.486 34.96 139.722 36.5301 139.988 38.3572C140.255 40.1843 139.52 42.0422 137.995 43.5762C136.47 45.1105 134.188 46.2786 131.502 46.6707Z" stroke="black" stroke-width="1.58721"/>
  <path d="M130.745 41.5283C129.421 41.7216 128.221 41.6209 127.363 41.3377C126.454 41.0378 126.165 40.6309 126.128 40.3787C126.091 40.1265 126.252 39.6539 127.037 39.1068C127.779 38.5901 128.899 38.1506 130.224 37.9573C131.548 37.764 132.748 37.8647 133.606 38.1479C134.515 38.4477 134.804 38.8546 134.841 39.1068C134.877 39.3591 134.717 39.8316 133.932 40.3787C133.19 40.8955 132.069 41.3349 130.745 41.5283Z" fill="black" stroke="black" stroke-width="1.58721"/>
  <mask id="path-8-inside-1_924_27965" fill="white">
    <path fill-rule="evenodd" clip-rule="evenodd" d="M154.994 38.5011C156.03 45.6 162.625 50.5147 169.724 49.4784C176.823 48.4421 181.738 41.8471 180.701 34.7482C179.665 27.6492 173.07 22.7345 165.971 23.7709C158.872 24.8072 153.957 31.4021 154.994 38.5011ZM160.138 37.7628C160.76 42.0221 164.717 44.971 168.976 44.3492C173.235 43.7274 176.184 39.7704 175.562 35.511C174.941 31.2517 170.984 28.3028 166.724 28.9246C162.465 29.5464 159.516 33.5034 160.138 37.7628Z"/>
  </mask>
  <path fill-rule="evenodd" clip-rule="evenodd" d="M154.994 38.5011C156.03 45.6 162.625 50.5147 169.724 49.4784C176.823 48.4421 181.738 41.8471 180.701 34.7482C179.665 27.6492 173.07 22.7345 165.971 23.7709C158.872 24.8072 153.957 31.4021 154.994 38.5011ZM160.138 37.7628C160.76 42.0221 164.717 44.971 168.976 44.3492C173.235 43.7274 176.184 39.7704 175.562 35.511C174.941 31.2517 170.984 28.3028 166.724 28.9246C162.465 29.5464 159.516 33.5034 160.138 37.7628Z" fill="#FF2E00"/>
  <path d="M169.495 47.9078C163.263 48.8175 157.474 44.5033 156.564 38.2718L153.423 38.7304C154.586 46.6967 161.987 52.2119 169.953 51.049L169.495 47.9078ZM179.131 34.9775C180.04 41.209 175.726 46.9981 169.495 47.9078L169.953 51.049C177.92 49.886 183.435 42.4852 182.272 34.5189L179.131 34.9775ZM166.2 25.3414C172.432 24.4317 178.221 28.7459 179.131 34.9775L182.272 34.5189C181.109 26.5526 173.708 21.0373 165.742 22.2003L166.2 25.3414ZM156.564 38.2718C155.655 32.0403 159.969 26.2511 166.2 25.3414L165.742 22.2003C157.775 23.3633 152.26 30.764 153.423 38.7304L156.564 38.2718ZM168.747 42.7786C165.355 43.2738 162.204 40.9255 161.708 37.5335L158.567 37.992C159.316 43.1188 164.078 46.6681 169.205 45.9197L168.747 42.7786ZM173.992 35.7403C174.487 39.1323 172.139 42.2834 168.747 42.7786L169.205 45.9197C174.332 45.1713 177.881 40.4085 177.133 35.2817L173.992 35.7403ZM166.953 30.4952C170.345 30 173.497 32.3483 173.992 35.7403L177.133 35.2817C176.384 30.155 171.622 26.6056 166.495 27.3541L166.953 30.4952ZM161.708 37.5335C161.213 34.1415 163.562 30.9904 166.953 30.4952L166.495 27.3541C161.368 28.1025 157.819 32.8653 158.567 37.992L161.708 37.5335Z" fill="black" mask="url(#path-8-inside-1_924_27965)"/>
  <mask id="path-10-inside-2_924_27965" fill="white">
    <path fill-rule="evenodd" clip-rule="evenodd" d="M156.489 48.7782C157.525 55.8771 164.12 60.7918 171.219 59.7555C178.318 58.7192 183.233 52.1242 182.197 45.0253C181.16 37.9263 174.565 33.0116 167.466 34.048C160.368 35.0843 155.453 41.6792 156.489 48.7782ZM161.629 48.0266C162.251 52.286 166.208 55.2348 170.467 54.613C174.726 53.9912 177.675 50.0343 177.053 45.7749C176.431 41.5155 172.474 38.5667 168.215 39.1885C163.956 39.8103 161.007 43.7673 161.629 48.0266Z"/>
  </mask>
  <path fill-rule="evenodd" clip-rule="evenodd" d="M156.489 48.7782C157.525 55.8771 164.12 60.7918 171.219 59.7555C178.318 58.7192 183.233 52.1242 182.197 45.0253C181.16 37.9263 174.565 33.0116 167.466 34.048C160.368 35.0843 155.453 41.6792 156.489 48.7782ZM161.629 48.0266C162.251 52.286 166.208 55.2348 170.467 54.613C174.726 53.9912 177.675 50.0343 177.053 45.7749C176.431 41.5155 172.474 38.5667 168.215 39.1885C163.956 39.8103 161.007 43.7673 161.629 48.0266Z" fill="#FF2E00"/>
  <path d="M170.99 58.1849C164.759 59.0946 158.969 54.7804 158.06 48.5489L154.919 49.0075C156.082 56.9738 163.482 62.489 171.449 61.3261L170.99 58.1849ZM180.626 45.2546C181.536 51.4861 177.222 57.2752 170.99 58.1849L171.449 61.3261C179.415 60.1631 184.93 52.7623 183.767 44.796L180.626 45.2546ZM167.696 35.6185C173.927 34.7088 179.716 39.023 180.626 45.2546L183.767 44.796C182.604 36.8297 175.204 31.3144 167.237 32.4774L167.696 35.6185ZM158.06 48.5489C157.15 42.3174 161.464 36.5282 167.696 35.6185L167.237 32.4774C159.271 33.6404 153.756 41.0411 154.919 49.0075L158.06 48.5489ZM170.238 53.0425C166.846 53.5376 163.694 51.1893 163.199 47.7974L160.058 48.2559C160.807 53.3827 165.569 56.932 170.696 56.1836L170.238 53.0425ZM175.483 46.0042C175.978 49.3961 173.63 52.5473 170.238 53.0425L170.696 56.1836C175.823 55.4352 179.372 50.6724 178.624 45.5456L175.483 46.0042ZM168.444 40.7591C171.836 40.2639 174.988 42.6122 175.483 46.0042L178.624 45.5456C177.875 40.4189 173.113 36.8695 167.986 37.6179L168.444 40.7591ZM163.199 47.7974C162.704 44.4054 165.052 41.2542 168.444 40.7591L167.986 37.6179C162.859 38.3664 159.31 43.1292 160.058 48.2559L163.199 47.7974Z" fill="black" mask="url(#path-10-inside-2_924_27965)"/>
  <path d="M110.448 56.863C110.448 56.863 107.897 55.5525 106.575 55.3973C105.253 55.2421 102.468 55.9264 102.468 55.9264" stroke="black" stroke-width="1.67672"/>
  <path d="M126.698 59.131C126.828 58.4035 127.46 57.8737 128.199 57.8737H136.678C137.609 57.8737 138.323 58.7005 138.187 59.6215L136.383 71.8356C136.361 71.9833 136.361 72.1335 136.383 72.2812L138.412 86.0203C138.434 86.168 138.434 86.3182 138.412 86.4659L136.383 100.205C136.361 100.353 136.361 100.503 136.383 100.651L137.855 110.618C138.06 112.009 136.435 112.913 135.361 112.005L127.345 105.227C127.072 104.996 126.889 104.676 126.827 104.324L124.874 93.1021C124.843 92.9247 124.844 92.7434 124.876 92.5663L126.873 81.6424C126.906 81.4633 126.906 81.2798 126.874 81.1005L124.875 69.8903C124.843 69.7133 124.843 69.532 124.875 69.3549L126.698 59.131Z" fill="black" fill-opacity="0.42"/>
  <path d="M133.761 62.1034C131.075 62.4955 128.554 62.0285 126.654 60.9942C124.754 59.9601 123.518 58.39 123.252 56.5629C122.985 54.7358 123.72 52.8779 125.245 51.3439C126.77 49.8097 129.052 48.6415 131.738 48.2494C134.424 47.8573 136.945 48.3242 138.845 49.3585C140.745 50.3926 141.98 51.9628 142.247 53.7899C142.514 55.6169 141.779 57.4748 140.254 59.0088C138.729 60.5431 136.447 61.7112 133.761 62.1034Z" fill="white" stroke="black" stroke-width="1.58721"/>
  <path d="M133.004 56.9609C131.679 57.1543 130.48 57.0536 129.622 56.7704C128.713 56.4705 128.424 56.0636 128.387 55.8114C128.35 55.5592 128.511 55.0866 129.296 54.5395C130.037 54.0227 131.158 53.5833 132.482 53.39C133.807 53.1967 135.006 53.2974 135.865 53.5806C136.773 53.8804 137.063 54.2873 137.099 54.5395C137.136 54.7917 136.975 55.2643 136.19 55.8114C135.449 56.3282 134.328 56.7676 133.004 56.9609Z" fill="black" stroke="black" stroke-width="1.58721"/>
  <rect x="47.2743" y="108.132" width="64.05" height="12.2" fill="#C1FFC0"/>
  <path d="M47.2743 110.42H55.6618" stroke="black" stroke-opacity="0.2" stroke-width="0.61"/>
  <path d="M103.699 117.282H112.087" stroke="black" stroke-opacity="0.2" stroke-width="0.61"/>
  <path d="M108.274 111.182L112.849 111.182" stroke="black" stroke-opacity="0.2" stroke-width="0.61"/>
  <path d="M47.2743 112.707L51.8493 112.707" stroke="black" stroke-opacity="0.2" stroke-width="0.61"/>
  <path d="M47.2743 117.282L59.4743 117.282" stroke="black" stroke-opacity="0.2" stroke-width="0.61"/>
  <path d="M74.7243 108.132L77.0118 120.332L78.5368 108.132L80.0618 120.332L80.8243 108.132L82.3493 120.332" stroke="black" stroke-opacity="0.39" stroke-width="0.61"/>
  <rect width="64.05" height="12.2" transform="matrix(-1 0 0 1 118.949 95.932)" fill="#95CD94"/>
  <path d="M118.949 98.2195H110.562" stroke="black" stroke-opacity="0.2" stroke-width="0.61"/>
  <path d="M62.5243 105.082H54.1368" stroke="black" stroke-opacity="0.2" stroke-width="0.61"/>
  <path d="M57.9493 98.9821L53.3743 98.9821" stroke="black" stroke-opacity="0.2" stroke-width="0.61"/>
  <path d="M118.949 100.507L114.374 100.507" stroke="black" stroke-opacity="0.2" stroke-width="0.61"/>
  <path d="M118.949 105.082L106.749 105.082" stroke="black" stroke-opacity="0.2" stroke-width="0.61"/>
  <path d="M91.4993 95.932L89.2118 108.132L87.6868 95.932L86.1618 108.132L85.3993 95.932L83.8743 108.132" stroke="black" stroke-opacity="0.39" stroke-width="0.61"/>
  <rect width="64.05" height="12.2" transform="matrix(-1 0 0 1 123.524 71.532)" fill="#95CD94"/>
  <path d="M123.524 73.8195H115.137" stroke="black" stroke-opacity="0.2" stroke-width="0.61"/>
  <path d="M67.0993 80.682H58.7118" stroke="black" stroke-opacity="0.2" stroke-width="0.61"/>
  <path d="M62.5243 74.582L57.9493 74.582" stroke="black" stroke-opacity="0.2" stroke-width="0.61"/>
  <path d="M123.524 76.1071L118.949 76.1071" stroke="black" stroke-opacity="0.2" stroke-width="0.61"/>
  <path d="M123.524 80.682L111.324 80.682" stroke="black" stroke-opacity="0.2" stroke-width="0.61"/>
  <path d="M96.0743 71.532L93.7868 83.732L92.2618 71.532L90.7368 83.732L89.9743 71.532L88.4493 83.732" stroke="black" stroke-opacity="0.39" stroke-width="0.61"/>
  <rect x="50.3243" y="83.7321" width="64.05" height="12.2" fill="#C1FFC0"/>
  <path d="M50.3243 86.0195H58.7118" stroke="black" stroke-opacity="0.2" stroke-width="0.61"/>
  <path d="M106.749 92.882H115.137" stroke="black" stroke-opacity="0.2" stroke-width="0.61"/>
  <path d="M111.324 86.782L115.899 86.782" stroke="black" stroke-opacity="0.2" stroke-width="0.61"/>
  <path d="M50.3243 88.307L54.8993 88.307" stroke="black" stroke-opacity="0.2" stroke-width="0.61"/>
  <path d="M50.3243 92.882L62.5243 92.882" stroke="black" stroke-opacity="0.2" stroke-width="0.61"/>
  <path d="M77.7743 83.7321L80.0618 95.9321L81.5868 83.7321L83.1118 95.9321L83.8743 83.7321L85.3993 95.9321" stroke="black" stroke-opacity="0.39" stroke-width="0.61"/>
  <rect x="121.999" y="117.282" width="10.675" height="3.05" fill="#FFB800"/>
  <rect x="121.999" y="111.182" width="10.675" height="3.05" fill="#FFB800"/>
  <rect x="121.999" y="114.232" width="10.675" height="3.05" fill="#FFD567"/>
  <rect x="123.524" y="108.132" width="10.675" height="3.05" fill="#FFD567"/>
  <rect x="108.274" y="117.282" width="10.675" height="3.05" fill="#FFB800"/>
  <rect x="108.274" y="111.182" width="10.675" height="3.05" fill="#FFB800"/>
  <rect x="108.274" y="114.232" width="10.675" height="3.05" fill="#FFD567"/>
  <rect x="109.799" y="108.132" width="10.675" height="3.05" fill="#FFD567"/>
  <rect x="108.274" y="105.082" width="10.675" height="3.05" fill="#FFB800"/>
  <rect x="108.274" y="98.9821" width="10.675" height="3.05" fill="#FFB800"/>
  <rect x="108.274" y="102.032" width="10.675" height="3.05" fill="#FFD567"/>
</svg>