<svg xmlns="http://www.w3.org/2000/svg" width="121" height="128" viewBox="0 0 121 128" fill="none">
  <mask id="path-1-inside-1_924_27982" fill="white">
    <path fill-rule="evenodd" clip-rule="evenodd" d="M54.5105 120.493C56.4456 125.555 63.608 125.554 65.542 120.491L97.4042 37.0811C98.6545 37.3435 99.9505 37.4815 101.279 37.4815C111.637 37.4815 120.034 29.091 120.034 18.7408C120.034 8.39057 111.637 7.55604e-05 101.279 7.46556e-05C100.647 7.46003e-05 100.022 0.0313398 99.4053 0.0924054L99.4053 0.00304996L73.1506 0.00304766L62.21 26.5609C61.4069 28.5103 58.646 28.5106 57.8425 26.5614L46.8946 0.00304537L20.6328 0.00304307L20.6328 0.0927876C20.0153 0.0314701 19.389 7.51315e-05 18.7554 7.50762e-05C8.3971 7.41713e-05 4.06577e-05 8.39057 3.97521e-05 18.7408C3.88466e-05 29.091 8.39709 37.4815 18.7554 37.4815C20.0828 37.4815 21.378 37.3437 22.6275 37.0816L54.5105 120.493Z"/>
  </mask>
  <path fill-rule="evenodd" clip-rule="evenodd" d="M54.5105 120.493C56.4456 125.555 63.608 125.554 65.542 120.491L97.4042 37.0811C98.6545 37.3435 99.9505 37.4815 101.279 37.4815C111.637 37.4815 120.034 29.091 120.034 18.7408C120.034 8.39057 111.637 7.55604e-05 101.279 7.46556e-05C100.647 7.46003e-05 100.022 0.0313398 99.4053 0.0924054L99.4053 0.00304996L73.1506 0.00304766L62.21 26.5609C61.4069 28.5103 58.646 28.5106 57.8425 26.5614L46.8946 0.00304537L20.6328 0.00304307L20.6328 0.0927876C20.0153 0.0314701 19.389 7.51315e-05 18.7554 7.50762e-05C8.3971 7.41713e-05 4.06577e-05 8.39057 3.97521e-05 18.7408C3.88466e-05 29.091 8.39709 37.4815 18.7554 37.4815C20.0828 37.4815 21.378 37.3437 22.6275 37.0816L54.5105 120.493Z" fill="#00EA42"/>
  <path d="M65.542 120.491L64.9904 120.281L64.9904 120.281L65.542 120.491ZM54.5105 120.493L55.062 120.282L55.062 120.282L54.5105 120.493ZM97.4042 37.0811L97.5255 36.5032L97.0324 36.3997L96.8526 36.8704L97.4042 37.0811ZM99.4053 0.0924054L98.8148 0.0924054L98.8148 0.744284L99.4635 0.680006L99.4053 0.0924054ZM99.4053 0.00304996L99.9958 0.00305001L99.9958 -0.587427L99.4053 -0.587427L99.4053 0.00304996ZM73.1506 0.00304766L73.1506 -0.587429L72.7552 -0.587429L72.6047 -0.221867L73.1506 0.00304766ZM62.21 26.5609L62.756 26.7858L62.21 26.5609ZM57.8425 26.5614L58.3884 26.3363L57.8425 26.5614ZM46.8946 0.00304537L47.4406 -0.221991L47.2899 -0.587432L46.8946 -0.587432L46.8946 0.00304537ZM20.6328 0.00304307L20.6328 -0.587434L20.0423 -0.587434L20.0423 0.00304302L20.6328 0.00304307ZM20.6328 0.0927876L20.5744 0.680373L21.2233 0.744803L21.2233 0.0927877L20.6328 0.0927876ZM22.6275 37.0816L23.1791 36.8708L22.9992 36.4003L22.5063 36.5037L22.6275 37.0816ZM64.9904 120.281C63.2498 124.837 56.8036 124.838 55.062 120.282L53.9589 120.703C56.0875 126.272 63.9662 126.271 66.0936 120.702L64.9904 120.281ZM96.8526 36.8704L64.9904 120.281L66.0936 120.702L97.9558 37.2918L96.8526 36.8704ZM97.283 37.659C98.5728 37.9297 99.9095 38.072 101.279 38.072L101.279 36.891C99.9915 36.891 98.7361 36.7573 97.5255 36.5032L97.283 37.659ZM101.279 38.072C111.963 38.072 120.625 29.4175 120.625 18.7408L119.444 18.7408C119.444 28.7644 111.311 36.891 101.279 36.891L101.279 38.072ZM120.625 18.7408C120.625 8.06403 111.963 -0.590401 101.279 -0.590402L101.279 0.590552C111.311 0.590553 119.444 8.71712 119.444 18.7408L120.625 18.7408ZM101.279 -0.590402C100.627 -0.590402 99.9826 -0.558176 99.3471 -0.495195L99.4635 0.680006C100.06 0.620855 100.666 0.590552 101.279 0.590552L101.279 -0.590402ZM99.9958 0.0924055L99.9958 0.00305001L98.8148 0.0030499L98.8148 0.0924054L99.9958 0.0924055ZM99.4053 -0.587427L73.1506 -0.587429L73.1506 0.593525L99.4053 0.593527L99.4053 -0.587427ZM72.6047 -0.221867L61.664 26.336L62.756 26.7858L73.6966 0.227962L72.6047 -0.221867ZM61.664 26.336C61.0617 27.798 58.991 27.7983 58.3884 26.3363L57.2966 26.7864C58.301 29.223 61.7521 29.2226 62.756 26.7858L61.664 26.336ZM58.3884 26.3363L47.4406 -0.221991L46.3487 0.228082L57.2966 26.7864L58.3884 26.3363ZM46.8946 -0.587432L20.6328 -0.587434L20.6328 0.59352L46.8946 0.593522L46.8946 -0.587432ZM20.0423 0.00304302L20.0423 0.0927876L21.2233 0.0927877L21.2233 0.00304313L20.0423 0.00304302ZM20.6911 -0.494798C20.0543 -0.558038 19.4085 -0.590402 18.7554 -0.590402L18.7554 0.590552C19.3695 0.590552 19.9763 0.620978 20.5744 0.680373L20.6911 -0.494798ZM18.7554 -0.590402C8.07142 -0.590403 -0.590436 8.06402 -0.590437 18.7408L0.590517 18.7408C0.590518 8.71711 8.72277 0.590551 18.7554 0.590552L18.7554 -0.590402ZM-0.590437 18.7408C-0.590438 29.4175 8.07142 38.072 18.7554 38.072L18.7554 36.891C8.72277 36.891 0.590516 28.7644 0.590517 18.7408L-0.590437 18.7408ZM18.7554 38.072C20.1238 38.072 21.4596 37.9299 22.7487 37.6595L22.5063 36.5037C21.2965 36.7575 20.0418 36.891 18.7554 36.891L18.7554 38.072ZM55.062 120.282L23.1791 36.8708L22.0759 37.2925L53.9589 120.703L55.062 120.282Z" fill="black" mask="url(#path-1-inside-1_924_27982)"/>
  <rect x="-0.402963" y="0.109861" width="16.1436" height="16.2861" transform="matrix(-0.496508 0.868032 -0.868366 -0.495924 97.1125 100.203)" fill="#C0BBBF" stroke="black" stroke-width="0.590476"/>
  <path d="M100.812 101.835L115.135 109.75L117.043 115.374L115.336 118.358L97.2646 108.037L100.812 101.835Z" fill="#C0BBBF" stroke="black" stroke-width="0.590476"/>
  <path d="M114.053 120.572L112.304 123.629L105.943 124.214L92.333 116.63L95.9818 110.251L114.053 120.572Z" fill="#C0BBBF" stroke="black" stroke-width="0.590476"/>
  <rect x="-0.402963" y="0.109861" width="21.1612" height="8.89654" transform="matrix(-0.496508 0.868032 -0.868366 -0.495924 104.343 101.492)" fill="#00EA42" stroke="black" stroke-width="0.590476"/>
  <path d="M67.1829 98.3069C67.1829 92.7775 71.6689 88.2947 77.2031 88.2947C82.7373 88.2947 87.2233 92.7775 87.2233 98.3069C87.2233 103.836 82.7373 108.319 77.2031 108.319C71.6689 108.319 67.1829 103.836 67.1829 98.3069Z" fill="#00EA42" stroke="black" stroke-width="0.590476"/>
  <path d="M76.5583 100.182C76.5583 98.7928 77.6854 97.6662 79.0763 97.6662C80.4673 97.6662 81.5944 98.7928 81.5944 100.182C81.5944 101.571 80.4673 102.698 79.0763 102.698C77.6854 102.698 76.5583 101.571 76.5583 100.182Z" fill="#C0C6C6" stroke="black" stroke-width="0.590476"/>
  <rect x="0.402963" y="0.109861" width="16.1436" height="16.2861" transform="matrix(0.496508 0.868032 0.868366 -0.495924 25.8956 99.503)" fill="#C0BBBF" stroke="black" stroke-width="0.590476"/>
  <path d="M22.596 101.835L8.27303 109.75L6.36549 115.374L8.07224 118.358L26.1436 108.037L22.596 101.835Z" fill="#C0BBBF" stroke="black" stroke-width="0.590476"/>
  <path d="M9.35507 120.572L11.1039 123.629L17.4655 124.214L31.0752 116.63L27.4264 110.251L9.35507 120.572Z" fill="#C0BBBF" stroke="black" stroke-width="0.590476"/>
  <rect x="0.402963" y="0.109861" width="21.1612" height="8.89654" transform="matrix(0.496508 0.868032 0.868366 -0.495924 18.6651 100.792)" fill="#00EA42" stroke="black" stroke-width="0.590476"/>
  <path d="M56.2253 98.3069C56.2253 92.7775 51.7393 88.2947 46.2051 88.2947C40.6709 88.2947 36.1849 92.7775 36.1849 98.3069C36.1849 103.836 40.6709 108.319 46.2051 108.319C51.7393 108.319 56.2253 103.836 56.2253 98.3069Z" fill="#00EA42" stroke="black" stroke-width="0.590476"/>
  <path d="M46.8499 100.182C46.8499 98.7928 45.7228 97.6662 44.3319 97.6662C42.941 97.6662 41.8138 98.7928 41.8138 100.182C41.8138 101.571 42.941 102.698 44.3319 102.698C45.7228 102.698 46.8499 101.571 46.8499 100.182Z" fill="#C0C6C6" stroke="black" stroke-width="0.590476"/>
  <path d="M96.5889 36.5049C95.0259 35.8802 92.4627 34.256 90.9623 32.7567" stroke="black" stroke-width="0.590476"/>
  <path d="M23.4404 36.5049C25.0034 35.8802 28.5044 33.319 30.0048 31.8197" stroke="black" stroke-width="0.590476"/>
  <path d="M57.3959 41.9416C57.3959 44.3373 56.7011 46.4893 55.5982 48.0322C54.4948 49.5758 53.0066 50.4835 51.4046 50.4835C49.8026 50.4835 48.3144 49.5758 47.211 48.0322C46.1081 46.4893 45.4133 44.3373 45.4133 41.9416C45.4133 39.546 46.1081 37.3939 47.211 35.8511C48.3144 34.3075 49.8026 33.3998 51.4046 33.3998C53.0066 33.3998 54.4948 34.3075 55.5982 35.8511C56.7011 37.3939 57.3959 39.546 57.3959 41.9416Z" fill="white" stroke="black" stroke-width="0.805195"/>
  <ellipse cx="51.4056" cy="41.9408" rx="3.83632" ry="6.38888" fill="black"/>
  <ellipse cx="52.6856" cy="39.3027" rx="2.55755" ry="2.55555" fill="white"/>
  <ellipse cx="53.4563" cy="43.3053" rx="0.937768" ry="0.937035" fill="white"/>
  <path d="M72.7396 41.9416C72.7396 44.3373 72.0449 46.4893 70.942 48.0322C69.8385 49.5758 68.3504 50.4835 66.7484 50.4835C65.1464 50.4835 63.6582 49.5758 62.5547 48.0322C61.4518 46.4893 60.7571 44.3373 60.7571 41.9416C60.7571 39.546 61.4518 37.3939 62.5547 35.8511C63.6582 34.3075 65.1464 33.3998 66.7484 33.3998C68.3504 33.3998 69.8385 34.3075 70.942 35.8511C72.0449 37.3939 72.7396 39.546 72.7396 41.9416Z" fill="white" stroke="black" stroke-width="0.805195"/>
  <ellipse cx="66.7494" cy="41.9408" rx="3.83632" ry="6.38888" fill="black"/>
  <ellipse cx="68.1974" cy="39.3027" rx="2.55755" ry="2.55555" fill="white"/>
  <ellipse cx="68.4524" cy="43.3053" rx="0.937768" ry="0.937035" fill="white"/>
</svg>