<svg xmlns="http://www.w3.org/2000/svg" width="130" height="125" viewBox="0 0 130 125" fill="none">
  <rect x="0.402963" y="-0.109861" width="16.1436" height="16.2861" transform="matrix(0.496508 -0.868032 0.868366 0.495924 22.0795 51.0903)" fill="#C0BBBF" stroke="black" stroke-width="0.590476"/>
  <path d="M18.5892 48.6495L4.2662 40.7343L2.35866 35.1107L4.0654 32.1268L22.1367 42.4474L18.5892 48.6495Z" fill="#C0BBBF" stroke="black" stroke-width="0.590476"/>
  <path d="M5.35218 29.9126L7.10104 26.8551L13.4627 26.2703L27.0723 33.854L23.4235 40.2331L5.35218 29.9126Z" fill="#C0BBBF" stroke="black" stroke-width="0.590476"/>
  <rect x="0.402963" y="-0.109861" width="21.1612" height="8.89654" transform="matrix(0.496508 -0.868032 0.868366 0.495924 14.8491 49.8012)" fill="#05A0FD" stroke="black" stroke-width="0.590476"/>
  <path d="M52.2185 52.1775C52.2185 57.7068 47.7325 62.1897 42.1983 62.1897C36.664 62.1897 32.1781 57.7068 32.1781 52.1775C32.1781 46.6482 36.664 42.1654 42.1983 42.1654C47.7325 42.1654 52.2185 46.6482 52.2185 52.1775Z" fill="#05A0FD" stroke="black" stroke-width="0.590476"/>
  <mask id="path-6-inside-1_924_28018" fill="white">
    <path fill-rule="evenodd" clip-rule="evenodd" d="M74.8987 3.79649C72.9636 -1.26608 65.8012 -1.26531 63.8672 3.79768L32.005 87.2079C30.7547 86.9455 29.4587 86.8076 28.1304 86.8076C17.7721 86.8076 9.375 95.1981 9.375 105.548C9.375 115.898 17.7721 124.289 28.1304 124.289C28.7627 124.289 29.3877 124.258 30.0039 124.197V124.286H56.2625L67.2031 97.7282C68.0062 95.7787 70.7671 95.7784 71.5706 97.7277L82.5185 124.286H108.776V124.196C109.394 124.258 110.02 124.289 110.654 124.289C121.012 124.289 129.409 115.898 129.409 105.548C129.409 95.1981 121.012 86.8076 110.654 86.8076C109.326 86.8076 108.031 86.9454 106.782 87.2074L74.8987 3.79649Z"/>
  </mask>
  <path fill-rule="evenodd" clip-rule="evenodd" d="M74.8987 3.79649C72.9636 -1.26608 65.8012 -1.26531 63.8672 3.79768L32.005 87.2079C30.7547 86.9455 29.4587 86.8076 28.1304 86.8076C17.7721 86.8076 9.375 95.1981 9.375 105.548C9.375 115.898 17.7721 124.289 28.1304 124.289C28.7627 124.289 29.3877 124.258 30.0039 124.197V124.286H56.2625L67.2031 97.7282C68.0062 95.7787 70.7671 95.7784 71.5706 97.7277L82.5185 124.286H108.776V124.196C109.394 124.258 110.02 124.289 110.654 124.289C121.012 124.289 129.409 115.898 129.409 105.548C129.409 95.1981 121.012 86.8076 110.654 86.8076C109.326 86.8076 108.031 86.9454 106.782 87.2074L74.8987 3.79649Z" fill="#05A0FD"/>
  <path d="M63.8672 3.79768L64.4188 4.00839V4.00839L63.8672 3.79768ZM74.8987 3.79649L74.3472 4.00732V4.00732L74.8987 3.79649ZM32.005 87.2079L31.8837 87.7858L32.3768 87.8893L32.5566 87.4186L32.005 87.2079ZM30.0039 124.197H30.5944V123.545L29.9457 123.609L30.0039 124.197ZM30.0039 124.286H29.4134V124.876H30.0039V124.286ZM56.2625 124.286V124.876H56.6578L56.8084 124.511L56.2625 124.286ZM67.2031 97.7282L66.6571 97.5033L67.2031 97.7282ZM71.5706 97.7277L72.1165 97.5026L71.5706 97.7277ZM82.5185 124.286L81.9725 124.511L82.1232 124.876H82.5185V124.286ZM108.776 124.286V124.876H109.367V124.286H108.776ZM108.776 124.196L108.835 123.609L108.186 123.544V124.196H108.776ZM106.782 87.2074L106.23 87.4182L106.41 87.8887L106.903 87.7853L106.782 87.2074ZM64.4188 4.00839C66.1594 -0.548303 72.6056 -0.548996 74.3472 4.00732L75.4503 3.58567C73.3217 -1.98317 65.443 -1.98232 63.3156 3.58697L64.4188 4.00839ZM32.5566 87.4186L64.4188 4.00839L63.3156 3.58697L31.4534 86.9972L32.5566 87.4186ZM32.1262 86.6301C30.8364 86.3593 29.4997 86.2171 28.1304 86.2171V87.398C29.4177 87.398 30.6731 87.5318 31.8837 87.7858L32.1262 86.6301ZM28.1304 86.2171C17.4464 86.2171 8.78452 94.8715 8.78452 105.548H9.96548C9.96548 95.5246 18.0977 87.398 28.1304 87.398V86.2171ZM8.78452 105.548C8.78452 116.225 17.4464 124.879 28.1304 124.879V123.699C18.0977 123.699 9.96548 115.572 9.96548 105.548H8.78452ZM28.1304 124.879C28.7821 124.879 29.4266 124.847 30.0621 124.784L29.9457 123.609C29.3488 123.668 28.7432 123.699 28.1304 123.699V124.879ZM29.4134 124.197V124.286H30.5944V124.197H29.4134ZM30.0039 124.876H56.2625V123.696H30.0039V124.876ZM56.8084 124.511L67.7491 97.9531L66.6571 97.5033L55.7165 124.061L56.8084 124.511ZM67.7491 97.9531C68.3514 96.491 70.4221 96.4908 71.0247 97.9527L72.1165 97.5026C71.1121 95.0661 67.661 95.0665 66.6571 97.5033L67.7491 97.9531ZM71.0247 97.9527L81.9725 124.511L83.0644 124.061L72.1165 97.5026L71.0247 97.9527ZM82.5185 124.876H108.776V123.696H82.5185V124.876ZM109.367 124.286V124.196H108.186V124.286H109.367ZM108.718 124.784C109.355 124.847 110.001 124.879 110.654 124.879V123.699C110.04 123.699 109.433 123.668 108.835 123.609L108.718 124.784ZM110.654 124.879C121.338 124.879 130 116.225 130 105.548H128.819C128.819 115.572 120.686 123.699 110.654 123.699V124.879ZM130 105.548C130 94.8715 121.338 86.2171 110.654 86.2171V87.398C120.686 87.398 128.819 95.5246 128.819 105.548H130ZM110.654 86.2171C109.285 86.2171 107.95 86.3592 106.66 86.6295L106.903 87.7853C108.113 87.5316 109.367 87.398 110.654 87.398V86.2171ZM74.3472 4.00732L106.23 87.4182L107.333 86.9966L75.4503 3.58567L74.3472 4.00732Z" fill="black" mask="url(#path-6-inside-1_924_28018)"/>
  <path d="M42.8431 50.3023C42.8431 51.6916 41.7159 52.8182 40.325 52.8182C38.9341 52.8182 37.807 51.6916 37.807 50.3023C37.807 48.9131 38.9341 47.7864 40.325 47.7864C41.7159 47.7864 42.8431 48.9131 42.8431 50.3023Z" fill="#C0C6C6" stroke="black" stroke-width="0.590476"/>
  <path d="M32.8242 87.7842C34.3872 88.4089 36.9504 90.0331 38.4508 91.5323" stroke="black" stroke-width="0.590476"/>
  <path d="M105.969 87.7842C104.406 88.4089 100.905 90.9701 99.4044 92.4694" stroke="black" stroke-width="0.590476"/>
  <path d="M68.6469 47.0724C68.6469 49.468 67.9521 51.62 66.8492 53.1629C65.7458 54.7065 64.2576 55.6142 62.6556 55.6142C61.0536 55.6142 59.5654 54.7065 58.462 53.1629C57.3591 51.62 56.6643 49.468 56.6643 47.0724C56.6643 44.6767 57.3591 42.5247 58.462 40.9818C59.5654 39.4382 61.0536 38.5305 62.6556 38.5305C64.2576 38.5305 65.7458 39.4382 66.8492 40.9818C67.9521 42.5247 68.6469 44.6767 68.6469 47.0724Z" fill="white" stroke="black" stroke-width="0.805195"/>
  <ellipse cx="62.6566" cy="47.0715" rx="3.83632" ry="6.38888" fill="black"/>
  <ellipse cx="63.9365" cy="44.4335" rx="2.55755" ry="2.55555" fill="white"/>
  <ellipse cx="64.7073" cy="48.4361" rx="0.937768" ry="0.937035" fill="white"/>
  <path d="M83.9906 47.0724C83.9906 49.468 83.2959 51.62 82.193 53.1629C81.0895 54.7065 79.6013 55.6142 77.9993 55.6142C76.3973 55.6142 74.9092 54.7065 73.8057 53.1629C72.7028 51.62 72.0081 49.468 72.0081 47.0724C72.0081 44.6767 72.7028 42.5247 73.8057 40.9818C74.9092 39.4382 76.3973 38.5305 77.9993 38.5305C79.6013 38.5305 81.0895 39.4382 82.193 40.9818C83.2959 42.5247 83.9906 44.6767 83.9906 47.0724Z" fill="white" stroke="black" stroke-width="0.805195"/>
  <ellipse cx="78.0004" cy="47.0715" rx="3.83632" ry="6.38888" fill="black"/>
  <ellipse cx="79.4484" cy="44.4335" rx="2.55755" ry="2.55555" fill="white"/>
  <ellipse cx="79.7034" cy="48.4361" rx="0.937768" ry="0.937035" fill="white"/>
  <rect x="60.2656" y="58.9755" width="18.2633" height="5.75484" rx="0.738095" fill="white" stroke="black" stroke-width="0.492063"/>
  <line x1="66.5195" y1="58.7295" x2="66.5195" y2="64.9764" stroke="black" stroke-width="0.492063"/>
  <line x1="63.3945" y1="58.7295" x2="63.3945" y2="64.9764" stroke="black" stroke-width="0.492063"/>
  <line x1="69.6445" y1="58.7295" x2="69.6445" y2="64.9764" stroke="black" stroke-width="0.492063"/>
  <line x1="72.7734" y1="58.7295" x2="72.7734" y2="64.9764" stroke="black" stroke-width="0.492063"/>
  <line x1="75.9023" y1="58.7295" x2="75.9023" y2="64.9764" stroke="black" stroke-width="0.492063"/>
</svg>