<svg width="102" height="101" viewBox="0 0 102 101" fill="none" xmlns="http://www.w3.org/2000/svg">
<rect x="0.394983" y="-0.107592" width="9.92419" height="9.77161" transform="matrix(0.479521 -0.87753 0.858324 0.513108 25.5167 41.4348)" fill="#C0BBBF" stroke="black" stroke-width="0.590476"/>
<path d="M23.2356 39.6236L14.6802 34.6746L13.5519 31.1932L14.5123 29.4357L25.284 35.875L23.2356 39.6236Z" fill="#C0BBBF" stroke="black" stroke-width="0.590476"/>
<path d="M15.395 27.8338L16.3772 26.0363L20.147 25.6737L28.2751 30.4147L26.1667 34.2732L15.395 27.8338Z" fill="#C0BBBF" stroke="black" stroke-width="0.590476"/>
<rect x="0.394983" y="-0.107592" width="13.078" height="5.23463" transform="matrix(0.479521 -0.87753 0.858324 0.513108 21.1261 40.6106)" fill="#05A0FD" stroke="black" stroke-width="0.590476"/>
<path d="M43.5776 42.0126C43.5776 45.4784 40.8944 48.2652 37.6122 48.2652C34.3299 48.2652 31.6468 45.4784 31.6468 42.0126C31.6468 38.5468 34.3299 35.7601 37.6122 35.7601C40.8944 35.7601 43.5776 38.5468 43.5776 42.0126Z" fill="#05A0FD" stroke="black" stroke-width="0.590476"/>
<mask id="path-7-inside-1_441_7754" fill="white">
<path fill-rule="evenodd" clip-rule="evenodd" d="M59.6558 17.3013C57.7668 12.1282 50.4502 12.1289 48.5623 17.3024L31.4246 64.2644C30.665 64.0973 29.8775 64.0095 29.0705 64.0095C22.7838 64.0095 17.6875 69.3396 17.6875 75.9146C17.6875 82.4895 22.7838 87.8196 29.0705 87.8196C29.454 87.8196 29.8332 87.7998 30.207 87.761V87.8127H78.0155V87.761C78.3894 87.7998 78.7687 87.8196 79.1525 87.8196C85.4391 87.8196 90.5354 82.4895 90.5354 75.9146C90.5354 69.3396 85.4391 64.0095 79.1525 64.0095C78.3476 64.0095 77.5622 64.0969 76.8045 64.263L59.6558 17.3013ZM51.9129 73.1543C52.6984 71.1587 55.5225 71.1584 56.3084 73.1539L62.0807 87.8106H46.1445L51.9129 73.1543Z"/>
</mask>
<path fill-rule="evenodd" clip-rule="evenodd" d="M59.6558 17.3013C57.7668 12.1282 50.4502 12.1289 48.5623 17.3024L31.4246 64.2644C30.665 64.0973 29.8775 64.0095 29.0705 64.0095C22.7838 64.0095 17.6875 69.3396 17.6875 75.9146C17.6875 82.4895 22.7838 87.8196 29.0705 87.8196C29.454 87.8196 29.8332 87.7998 30.207 87.761V87.8127H78.0155V87.761C78.3894 87.7998 78.7687 87.8196 79.1525 87.8196C85.4391 87.8196 90.5354 82.4895 90.5354 75.9146C90.5354 69.3396 85.4391 64.0095 79.1525 64.0095C78.3476 64.0095 77.5622 64.0969 76.8045 64.263L59.6558 17.3013ZM51.9129 73.1543C52.6984 71.1587 55.5225 71.1584 56.3084 73.1539L62.0807 87.8106H46.1445L51.9129 73.1543Z" fill="#05A0FD"/>
<path d="M48.5623 17.3024L49.117 17.5048L48.5623 17.3024ZM59.6558 17.3013L60.2104 17.0987L59.6558 17.3013ZM31.4246 64.2644L31.2977 64.8411L31.8022 64.952L31.9793 64.4668L31.4246 64.2644ZM30.207 87.761H30.7975V87.1062L30.1461 87.1737L30.207 87.761ZM30.207 87.8127H29.6166V88.4032H30.207V87.8127ZM78.0155 87.8127V88.4032H78.6059V87.8127H78.0155ZM78.0155 87.761L78.0764 87.1737L77.425 87.1061V87.761H78.0155ZM76.8045 64.263L76.2498 64.4656L76.4268 64.9504L76.931 64.8398L76.8045 64.263ZM56.3084 73.1539L56.8578 72.9375L56.3084 73.1539ZM51.9129 73.1543L51.3635 72.9381L51.9129 73.1543ZM62.0807 87.8106V88.4011H62.9478L62.6301 87.5942L62.0807 87.8106ZM46.1445 87.8106L45.5951 87.5944L45.2776 88.4011H46.1445V87.8106ZM49.117 17.5048C50.8161 12.8487 57.401 12.848 59.1011 17.5038L60.2104 17.0987C58.1325 11.4083 50.0843 11.4092 48.0076 17.1L49.117 17.5048ZM31.9793 64.4668L49.117 17.5048L48.0076 17.1L30.8699 64.062L31.9793 64.4668ZM31.5514 63.6877C30.7505 63.5116 29.9205 63.419 29.0705 63.419V64.6C29.8345 64.6 30.5795 64.6831 31.2977 64.8411L31.5514 63.6877ZM29.0705 63.419C22.433 63.419 17.097 69.0387 17.097 75.9146H18.278C18.278 69.6404 23.1346 64.6 29.0705 64.6V63.419ZM17.097 75.9146C17.097 82.7904 22.433 88.4101 29.0705 88.4101V87.2292C23.1346 87.2292 18.278 82.1887 18.278 75.9146H17.097ZM29.0705 88.4101C29.4744 88.4101 29.8739 88.3892 30.2679 88.3484L30.1461 87.1737C29.7925 87.2104 29.4337 87.2292 29.0705 87.2292V88.4101ZM29.6166 87.761V87.8127H30.7975V87.761H29.6166ZM30.207 88.4032H78.0155V87.2222H30.207V88.4032ZM78.6059 87.8127V87.761H77.425V87.8127H78.6059ZM77.9545 88.3483C78.3487 88.3892 78.7484 88.4101 79.1525 88.4101V87.2292C78.7891 87.2292 78.4302 87.2104 78.0764 87.1737L77.9545 88.3483ZM79.1525 88.4101C85.7899 88.4101 91.1259 82.7904 91.1259 75.9146H89.945C89.945 82.1887 85.0883 87.2292 79.1525 87.2292V88.4101ZM91.1259 75.9146C91.1259 69.0387 85.7899 63.419 79.1525 63.419V64.6C85.0883 64.6 89.945 69.6404 89.945 75.9146H91.1259ZM79.1525 63.419C78.3047 63.419 77.4769 63.5111 76.678 63.6863L76.931 64.8398C77.6474 64.6827 78.3904 64.6 79.1525 64.6V63.419ZM59.1011 17.5038L76.2498 64.4656L77.3591 64.0605L60.2104 17.0987L59.1011 17.5038ZM56.8578 72.9375C55.8754 70.4432 52.3453 70.4436 51.3635 72.9381L52.4624 73.3706C53.0515 71.8739 55.1696 71.8736 55.759 73.3702L56.8578 72.9375ZM62.6301 87.5942L56.8578 72.9375L55.759 73.3702L61.5313 88.027L62.6301 87.5942ZM46.1445 88.4011H62.0807V87.2201H46.1445V88.4011ZM51.3635 72.9381L45.5951 87.5944L46.694 88.0269L52.4624 73.3706L51.3635 72.9381Z" fill="black" mask="url(#path-7-inside-1_441_7754)"/>
<path d="M37.8853 40.8207C37.8853 41.6564 37.2407 42.3111 36.4731 42.3111C35.7054 42.3111 35.0609 41.6564 35.0609 40.8207C35.0609 39.9851 35.7054 39.3304 36.4731 39.3304C37.2407 39.3304 37.8853 39.9851 37.8853 40.8207Z" fill="#C0C6C6" stroke="black" stroke-width="0.590476"/>
<path d="M31.9219 64.6328C32.8705 65.0296 34.4261 66.0613 35.3368 67.0136" stroke="black" stroke-width="0.590476"/>
<path d="M76.3125 64.6328C75.3639 65.0296 73.2391 66.6565 72.3285 67.6088" stroke="black" stroke-width="0.590476"/>
<path d="M53.4991 38.7757C53.4991 40.2744 53.0836 41.6134 52.4327 42.5664C51.7804 43.5215 50.9208 44.0551 50.0212 44.0551C49.1216 44.0551 48.2619 43.5215 47.6097 42.5664C46.9588 41.6134 46.5432 40.2744 46.5432 38.7757C46.5432 37.2771 46.9588 35.9381 47.6097 34.985C48.2619 34.03 49.1216 33.4963 50.0212 33.4963C50.9208 33.4963 51.7804 34.03 52.4327 34.985C53.0836 35.9381 53.4991 37.2771 53.4991 38.7757Z" fill="white" stroke="black" stroke-width="0.805195"/>
<ellipse cx="50.0158" cy="38.7773" rx="2.32833" ry="4.05855" fill="black"/>
<ellipse cx="50.8022" cy="37.0959" rx="1.55222" ry="1.62327" fill="white"/>
<ellipse cx="51.2723" cy="39.6382" rx="0.569148" ry="0.595197" fill="white"/>
<path d="M62.8116 38.7757C62.8116 40.2744 62.3961 41.6134 61.7452 42.5664C61.0929 43.5215 60.2333 44.0551 59.3337 44.0551C58.4341 44.0551 57.5744 43.5215 56.9222 42.5664C56.2713 41.6134 55.8557 40.2744 55.8557 38.7757C55.8557 37.2771 56.2713 35.9381 56.9222 34.985C57.5744 34.03 58.4341 33.4963 59.3337 33.4963C60.2333 33.4963 61.0929 34.03 61.7452 34.985C62.3961 35.9381 62.8116 37.2771 62.8116 38.7757Z" fill="white" stroke="black" stroke-width="0.805195"/>
<ellipse cx="59.3283" cy="38.7773" rx="2.32833" ry="4.05855" fill="black"/>
<ellipse cx="60.2085" cy="37.0959" rx="1.55222" ry="1.62327" fill="white"/>
<ellipse cx="60.366" cy="39.6382" rx="0.569148" ry="0.595197" fill="white"/>
<rect x="48.6757" y="46.414" width="10.8909" height="3.47592" rx="0.738095" fill="white" stroke="black" stroke-width="0.492063"/>
<line x1="52.4648" y1="46.168" x2="52.4648" y2="50.1359" stroke="black" stroke-width="0.492063"/>
<line x1="50.5742" y1="46.168" x2="50.5742" y2="50.1359" stroke="black" stroke-width="0.492063"/>
<line x1="54.3632" y1="46.168" x2="54.3632" y2="50.1359" stroke="black" stroke-width="0.492063"/>
<line x1="56.2617" y1="46.168" x2="56.2617" y2="50.1359" stroke="black" stroke-width="0.492063"/>
<line x1="58.1679" y1="46.168" x2="58.1679" y2="50.1359" stroke="black" stroke-width="0.492063"/>
</svg>
