<svg width="102" height="101" viewBox="0 0 102 101" fill="none" xmlns="http://www.w3.org/2000/svg">
<mask id="path-2-inside-1_441_7799" fill="white">
<path fill-rule="evenodd" clip-rule="evenodd" d="M69.6241 46.7103C73.7746 42.2766 76.3157 36.3177 76.3157 29.7653C76.3157 16.0684 65.2122 4.96484 51.5153 4.96484C37.8184 4.96484 26.7148 16.0684 26.7148 29.7653C26.7148 36.3186 29.2566 42.2782 33.4081 46.7121L35.9593 52.9743C37.3261 56.329 36.4768 60.1793 33.8255 62.6477L27.937 68.1302C27.2771 68.6935 26.6466 69.2804 26.0476 69.8892L25.3867 70.5045H25.4599C21.2456 75.05 18.7422 80.7309 18.7422 86.8936C18.7422 89.5063 19.1921 92.0323 20.0315 94.4219H82.9968C83.8362 92.0323 84.2861 89.5063 84.2861 86.8936C84.2861 80.7309 81.7827 75.05 77.5685 70.5045H77.6447L76.9459 69.8539C76.369 69.2695 75.763 68.7053 75.1297 68.163L69.206 62.6477C66.5547 60.1793 65.7054 56.329 67.0721 52.9743L69.6241 46.7103Z"/>
</mask>
<path fill-rule="evenodd" clip-rule="evenodd" d="M69.6241 46.7103C73.7746 42.2766 76.3157 36.3177 76.3157 29.7653C76.3157 16.0684 65.2122 4.96484 51.5153 4.96484C37.8184 4.96484 26.7148 16.0684 26.7148 29.7653C26.7148 36.3186 29.2566 42.2782 33.4081 46.7121L35.9593 52.9743C37.3261 56.329 36.4768 60.1793 33.8255 62.6477L27.937 68.1302C27.2771 68.6935 26.6466 69.2804 26.0476 69.8892L25.3867 70.5045H25.4599C21.2456 75.05 18.7422 80.7309 18.7422 86.8936C18.7422 89.5063 19.1921 92.0323 20.0315 94.4219H82.9968C83.8362 92.0323 84.2861 89.5063 84.2861 86.8936C84.2861 80.7309 81.7827 75.05 77.5685 70.5045H77.6447L76.9459 69.8539C76.369 69.2695 75.763 68.7053 75.1297 68.163L69.206 62.6477C66.5547 60.1793 65.7054 56.329 67.0721 52.9743L69.6241 46.7103Z" fill="#FADD03"/>
<path d="M69.6241 46.7103L69.2704 46.3792L69.2092 46.4446L69.1754 46.5275L69.6241 46.7103ZM33.4081 46.7121L33.8568 46.5293L33.823 46.4463L33.7618 46.3809L33.4081 46.7121ZM35.9593 52.9743L35.5106 53.1571L35.9593 52.9743ZM33.8255 62.6477L34.1557 63.0023L33.8255 62.6477ZM27.937 68.1302L28.2515 68.4987L28.2595 68.4919L28.2671 68.4848L27.937 68.1302ZM26.0476 69.8892L26.3777 70.2439L26.3855 70.2366L26.393 70.229L26.0476 69.8892ZM25.3867 70.5045L25.0566 70.1499L24.1553 70.989H25.3867V70.5045ZM25.4599 70.5045L25.8152 70.8339L26.5698 70.02H25.4599V70.5045ZM20.0315 94.4219L19.5744 94.5825L19.6882 94.9064H20.0315V94.4219ZM82.9968 94.4219V94.9064H83.3401L83.4539 94.5825L82.9968 94.4219ZM77.5685 70.5045V70.02H76.4585L77.2132 70.8339L77.5685 70.5045ZM77.6447 70.5045V70.989H78.8762L77.9749 70.1499L77.6447 70.5045ZM76.9459 69.8539L76.6011 70.1943L76.6083 70.2016L76.6158 70.2085L76.9459 69.8539ZM75.1297 68.163L74.7996 68.5176L74.8069 68.5244L74.8145 68.5309L75.1297 68.163ZM69.206 62.6477L69.5361 62.2931L69.206 62.6477ZM67.0721 52.9743L66.6234 52.7915L67.0721 52.9743ZM69.9778 47.0414C74.209 42.5215 76.8002 36.4455 76.8002 29.7653H75.8312C75.8312 36.1899 73.3402 42.0317 69.2704 46.3792L69.9778 47.0414ZM76.8002 29.7653C76.8002 15.8008 65.4797 4.48033 51.5153 4.48033V5.44935C64.9446 5.44935 75.8312 16.336 75.8312 29.7653H76.8002ZM51.5153 4.48033C37.5508 4.48033 26.2303 15.8008 26.2303 29.7653H27.1994C27.1994 16.336 38.086 5.44935 51.5153 5.44935V4.48033ZM26.2303 29.7653C26.2303 36.4464 28.8222 42.5231 33.0544 47.0432L33.7618 46.3809C29.691 42.0333 27.1994 36.1908 27.1994 29.7653H26.2303ZM36.4081 52.7915L33.8568 46.5293L32.9594 46.8949L35.5106 53.1571L36.4081 52.7915ZM34.1557 63.0023C36.9542 60.3968 37.8507 56.3326 36.4081 52.7915L35.5106 53.1571C36.8015 56.3254 35.9993 59.9619 33.4954 62.2931L34.1557 63.0023ZM28.2671 68.4848L34.1557 63.0023L33.4954 62.2931L27.6068 67.7756L28.2671 68.4848ZM26.393 70.229C26.9819 69.6304 27.6021 69.0531 28.2515 68.4987L27.6224 67.7617C26.952 68.334 26.3112 68.9304 25.7022 69.5494L26.393 70.229ZM25.7169 70.8591L26.3777 70.2439L25.7174 69.5346L25.0566 70.1499L25.7169 70.8591ZM25.4599 70.02H25.3867V70.989H25.4599V70.02ZM19.2267 86.8936C19.2267 80.8678 21.6733 75.3014 25.8152 70.8339L25.1046 70.1751C20.8179 74.7987 18.2577 80.5939 18.2577 86.8936H19.2267ZM20.4887 94.2613C19.6668 91.9218 19.2267 89.45 19.2267 86.8936H18.2577C18.2577 89.5625 18.7174 92.1427 19.5744 94.5825L20.4887 94.2613ZM82.9968 93.9374H20.0315V94.9064H82.9968V93.9374ZM83.8016 86.8936C83.8016 89.45 83.3615 91.9218 82.5397 94.2613L83.4539 94.5825C84.311 92.1427 84.7707 89.5625 84.7707 86.8936H83.8016ZM77.2132 70.8339C81.355 75.3014 83.8016 80.8678 83.8016 86.8936H84.7707C84.7707 80.5939 82.2104 74.7987 77.9238 70.1751L77.2132 70.8339ZM77.6447 70.02H77.5685V70.989H77.6447V70.02ZM76.6158 70.2085L77.3146 70.8591L77.9749 70.1499L77.2761 69.4993L76.6158 70.2085ZM74.8145 68.5309C75.4377 69.0647 76.0338 69.6197 76.6011 70.1943L77.2907 69.5135C76.7041 68.9193 76.0882 68.346 75.4449 67.795L74.8145 68.5309ZM68.8758 63.0023L74.7996 68.5176L75.4599 67.8083L69.5361 62.2931L68.8758 63.0023ZM66.6234 52.7915C65.1807 56.3326 66.0773 60.3968 68.8758 63.0023L69.5361 62.2931C67.0322 59.9619 66.23 56.3254 67.5208 53.1571L66.6234 52.7915ZM69.1754 46.5275L66.6234 52.7915L67.5208 53.1571L70.0728 46.8931L69.1754 46.5275Z" fill="black" mask="url(#path-2-inside-1_441_7799)"/>
<path d="M31.3907 35.3204H37.992V51.0212C37.992 52.8442 36.5143 54.3219 34.6914 54.3219C32.8684 54.3219 31.3907 52.8442 31.3907 51.0213V35.3204Z" fill="#FADD03" stroke="black" stroke-width="0.48451"/>
<rect x="30.2656" y="33.3047" width="8.85687" height="2.65706" fill="#FADD03"/>
<path d="M65.0469 35.3204H71.6483V51.0212C71.6483 52.8442 70.1705 54.3219 68.3476 54.3219C66.5247 54.3219 65.0469 52.8442 65.0469 51.0213V35.3204Z" fill="#FADD03" stroke="black" stroke-width="0.48451"/>
<rect x="63.9219" y="33.3047" width="8.85687" height="2.65706" fill="#FADD03"/>
<mask id="path-8-inside-2_441_7799" fill="white">
<path fill-rule="evenodd" clip-rule="evenodd" d="M74.4648 21.4369C68.549 18.9177 60.43 17.3633 51.4714 17.3633C42.516 17.3633 34.3996 18.9166 28.4844 21.4342C29.1828 10.2735 39.2088 1.42188 51.4745 1.42188C63.7412 1.42188 73.7678 10.275 74.4648 21.4369Z"/>
</mask>
<path fill-rule="evenodd" clip-rule="evenodd" d="M74.4648 21.4369C68.549 18.9177 60.43 17.3633 51.4714 17.3633C42.516 17.3633 34.3996 18.9166 28.4844 21.4342C29.1828 10.2735 39.2088 1.42188 51.4745 1.42188C63.7412 1.42188 73.7678 10.275 74.4648 21.4369Z" fill="#05A0FD"/>
<path d="M74.4648 21.4369L74.2749 21.8826L74.9973 22.1902L74.9483 21.4067L74.4648 21.4369ZM28.4844 21.4342L28.0008 21.4039L27.9518 22.1874L28.6741 21.88L28.4844 21.4342ZM51.4714 17.8478C60.3803 17.8478 68.432 19.3945 74.2749 21.8826L74.6546 20.9911C68.666 18.4409 60.4797 16.8788 51.4714 16.8788V17.8478ZM28.6741 21.88C34.5166 19.3934 42.5657 17.8478 51.4714 17.8478V16.8788C42.4663 16.8788 34.2827 18.4398 28.2946 20.9883L28.6741 21.88ZM28.9679 21.4644C29.6484 10.5902 39.4323 1.90639 51.4745 1.90639V0.937365C38.9852 0.937365 28.7171 9.95692 28.0008 21.4039L28.9679 21.4644ZM51.4745 1.90639C63.5176 1.90639 73.3021 10.5915 73.9812 21.467L74.9483 21.4067C74.2335 9.95837 63.9647 0.937365 51.4745 0.937365V1.90639Z" fill="black" mask="url(#path-8-inside-2_441_7799)"/>
<path d="M51.0209 27.7935C51.0209 28.8999 50.7001 29.8878 50.1981 30.5906C49.6956 31.294 49.0313 31.6903 48.3319 31.6903C47.6325 31.6903 46.9681 31.294 46.4657 30.5906C45.9637 29.8878 45.6428 28.8999 45.6428 27.7935C45.6428 26.6872 45.9637 25.6993 46.4657 24.9965C46.9681 24.2931 47.6325 23.8968 48.3319 23.8968C49.0313 23.8968 49.6956 24.2931 50.1981 24.9965C50.7001 25.6993 51.0209 26.6872 51.0209 27.7935Z" fill="white" stroke="black" stroke-width="0.660695"/>
<ellipse cx="48.3273" cy="27.7928" rx="1.81163" ry="3.01939" fill="black"/>
<circle cx="48.9343" cy="25.9812" r="1.20775" fill="white"/>
<path d="M58.2709 27.7935C58.2709 28.8999 57.9501 29.8878 57.4481 30.5906C56.9456 31.294 56.2813 31.6903 55.5819 31.6903C54.8825 31.6903 54.2181 31.294 53.7157 30.5906C53.2137 29.8878 52.8928 28.8999 52.8928 27.7935C52.8928 26.6872 53.2137 25.6993 53.7157 24.9965C54.2181 24.2931 54.8825 23.8968 55.5819 23.8968C56.2813 23.8968 56.9456 24.2931 57.4481 24.9965C57.9501 25.6993 58.2709 26.6872 58.2709 27.7935Z" fill="white" stroke="black" stroke-width="0.660695"/>
<ellipse cx="55.5773" cy="27.7928" rx="1.81163" ry="3.01939" fill="black"/>
<circle cx="56.1921" cy="25.9812" r="1.20775" fill="white"/>
<path d="M50.1406 32.3036L50.2628 32.3253C51.335 32.5159 52.437 32.2287 53.2799 31.5391V31.5391" stroke="black" stroke-width="0.660695"/>
<path d="M74.1032 19.5827V20.9113C67.4585 19.1399 66.1264 17.8051 49.7422 16.9193C58.9538 16.2107 70.5603 18.4017 74.1032 19.5827Z" fill="black" stroke="black" stroke-width="0.48451"/>
<path d="M18.1104 94.1805C18.2344 92.4707 19.6609 91.1221 21.4023 91.1221H26.0464H26.1254L26.1893 91.0755L29.7641 88.4649H39.1488L42.2652 91.0658L42.3326 91.1221H42.4204H47.9742C49.7156 91.1221 51.142 92.4707 51.2661 94.1805H18.1104Z" fill="white" stroke="black" stroke-width="0.48451"/>
<path d="M51.7666 94.1805C51.8907 92.4707 53.3171 91.1221 55.0585 91.1221H59.7026H59.7817L59.8455 91.0755L63.4203 88.4649H72.805L75.9214 91.0658L75.9888 91.1221H76.0767H81.6304C83.3718 91.1221 84.7983 92.4707 84.9223 94.1805H51.7666Z" fill="white" stroke="black" stroke-width="0.48451"/>
<path d="M51.5234 93.9846C51.5234 85.1271 52.9406 68.2099 74.5524 71.3985" stroke="black" stroke-width="0.48451"/>
<path d="M51.5234 93.9846C51.5234 85.1271 50.1063 68.2099 28.4945 71.3985" stroke="black" stroke-width="0.48451"/>
</svg>
